<?xml version="1.0" encoding="utf-8"?>
<!-- Generator: Adobe Illustrator 16.0.0, SVG Export Plug-In . SVG Version: 6.00 Build 0)  -->
<!DOCTYPE svg PUBLIC "-//W3C//DTD SVG 1.1//EN" "http://www.w3.org/Graphics/SVG/1.1/DTD/svg11.dtd">
<svg version="1.1" id="圖層_1" xmlns="http://www.w3.org/2000/svg" xmlns:xlink="http://www.w3.org/1999/xlink" x="0px" y="0px"
	 width="80px" height="80px" viewBox="0 0 80 80" enable-background="new 0 0 80 80" xml:space="preserve">
<image display="none" overflow="visible" width="1024" height="1024" xlink:href="559E3D4E.jpg"  transform="matrix(1 0 0 1 -471 -471)">
</image>
<g display="none">
	<path display="inline" fill="#8C493C" d="M27.293,38.4c0,0,16.8-17,18.3-18.5"/>
	
		<path display="inline" fill="none" stroke="#8C493C" stroke-width="3" stroke-linecap="round" stroke-linejoin="round" stroke-miterlimit="10" d="
		M27.38,38.487l19.473-19.474c1.516-1.515,3.973-1.515,5.487,0l0,0c1.516,1.515,1.516,3.972,0,5.487L34.704,42.139l0.223,0.182
		l8.562-8.563c1.516-1.515,3.972-1.515,5.487,0l0.294,0.335c1.516,1.515,1.222,3.637-0.294,5.152l-8.173,8.173l0.434,0.259
		l6.173-6.173c1.516-1.515,3.972-1.515,5.487,0l0.294,0.335c1.515,1.515,1.222,3.638-0.294,5.152l-6.589,6.589l0.25,0.252
		l4.502-4.502c1.516-1.516,3.972-1.516,5.487,0l0.294,0.334c1.515,1.516,1.221,3.638-0.294,5.153l-6.59,6.589
		c0,0-5.264,6.394-9.964,8.894s-10.4,3.2-14,1.101c-3.6-2.101-5.2-4.4-7.1-6c-1.9-1.601-4.5-8.5-0.8-16c0,0,1.728-8.447,0-13
		c-1.733-4.566-1-6.8,2-6.7C23.093,29.8,26.868,34.875,27.38,38.487z"/>
	<path display="inline" fill="none" stroke="#8C493C" stroke-width="2" stroke-miterlimit="10" d="M41.793,19.9
		c0,0,0.601-8.6,8.4-8.6"/>
	<path display="inline" fill="none" stroke="#8C493C" stroke-width="3" stroke-miterlimit="10" d="M37.793,19.4
		c0,0,0.4-11.5,12.4-12.4"/>
	<path display="inline" fill="none" stroke="#8C493C" stroke-width="2" stroke-miterlimit="10" d="M62.1,19.9c0,0-0.601,8.6-8.4,8.6
		"/>
	<path display="inline" fill="none" stroke="#8C493C" stroke-width="3" stroke-miterlimit="10" d="M66.1,20.4
		c0,0-0.4,11.5-12.4,12.4"/>
</g>
<image display="none" overflow="visible" width="103" height="107" xlink:href="559E3D4F.jpg"  transform="matrix(1 0 0 1 -11 -13)">
</image>
<circle opacity="0.5" fill="none" stroke="#E72D19" stroke-width="1.5" stroke-miterlimit="10" cx="18" cy="33.621" r="10.393"/>
<circle opacity="0.5" fill="#E72D19" cx="18" cy="33.621" r="8"/>
<path fill="#97554C" d="M69.513,29.821h-7.667c0,0-4-4.334-10-5.667s-14.583-5.417-15.583-2.667s2.917,3.667,6.583,5
	c3.667,1.333,4.834,1.333,4.834,5c0,0-26,0-28.667,0s-3.833,4.333,0,4.833s16.833,1.5,16.833,1.5s-1.833,5,1.667,7
	c0,0-1.333,4,1.667,5.5c0,0-0.671,1.448-0.269,3.227c0.266,1.178,0.841,2.939,3.626,2.939c3.834,0,7.476,0,11.476,0s6.167-4,7.667-4
	s7.833,0,7.833,0V29.821z"/>
<path fill="#8C493C" d="M38.911,53.548c-0.402-1.778,0.269-3.227,0.269-3.227c-3-1.5-1.667-5.5-1.667-5.5
	c-2.015-1.151-2.26-3.292-2.107-4.906c0.844,1.035,2.298,2.157,4.44,1.572c0,0-0.666,3.167,3.334,3.167c3.125,0,19.375,0,26.333,0
	v7.833c0,0-6.333,0-7.833,0s-3.667,4-7.667,4s-7.642,0-11.476,0C39.752,56.487,39.177,54.726,38.911,53.548z"/>
<path fill="#8C493C" d="M51.778,30.685h-4.125c-0.179-2.866-1.433-2.971-4.808-4.198c-3.666-1.333-7.583-2.25-6.583-5
	c0.179-0.491,0.606-0.756,1.21-0.866c-0.25,0.766-0.047,1.948,2.736,2.896C44.714,25.054,50.754,25.566,51.778,30.685z"/>
</svg>
